<?xml version="1.0" encoding="UTF-8"?>
<svg id="Layer_1" data-name="Layer 1" xmlns="http://www.w3.org/2000/svg" viewBox="0 0 301.99 66.87">
  <defs>
    <style>
      .cls-1 {
        fill: #1c1a1a;
      }
    </style>
  </defs>
  <path class="cls-1" d="M76.99,66.12h9.78v-24.84h10.35c9.78,0,14.86,2.16,16.65,9.22l4.04,15.62h11.85l-6.96-19.67c-1.32-3.67-3.86-7.25-13.07-7.72-.56,0-1.03-.19-1.03-.85,0-.56.38-.75.94-.85,10.06-1.32,17.12-8.09,17.12-16.84C126.65,8.34,120.07-.13,101.63-.13h-24.64v66.25ZM86.77,33V8.16h16.27c9.12,0,13.83,4.42,13.83,12.23,0,7.06-6.96,12.61-16.08,12.61h-14.02Z"/>
  <path class="cls-1" d="M152.74,17.19c-14.58,0-23.33,11.2-23.33,24.84s8.75,24.84,23.33,24.84,23.33-11.2,23.33-24.84-8.75-24.84-23.33-24.84ZM152.74,58.59c-9.03,0-14.3-7.43-14.3-16.56s5.27-16.56,14.3-16.56,14.3,7.43,14.3,16.56-5.27,16.56-14.3,16.56Z"/>
  <path class="cls-1" d="M202.56,17.19c-14.58,0-23.33,11.2-23.33,24.84s8.75,24.84,23.33,24.84,23.33-11.2,23.33-24.84-8.75-24.84-23.33-24.84ZM202.56,58.59c-9.03,0-14.3-7.43-14.3-16.56s5.27-16.56,14.3-16.56,14.3,7.43,14.3,16.56-5.27,16.56-14.3,16.56Z"/>
  <path class="cls-1" d="M257.11,25.85v-7.9h-13.54V4.39h-9.03v13.55h-9.03v7.9h9.03v26.16c0,10.45,4.7,14.12,14.67,14.12h7.9v-7.9h-7.15c-5.27,0-6.4-1.69-6.4-7.15v-25.22h13.54Z"/>
  <path class="cls-1" d="M259.85,49.37c.47,10.63,7.9,17.5,20.98,17.5s21.16-6.3,21.16-16.09c0-7.9-6.4-11.67-19.38-13.08-10.44-1.13-12.23-3.2-12.23-6.3s2.82-6.3,10.44-6.3c8.47,0,10.54,4.99,10.82,8.09h8.84c-.66-9.03-7.24-16-19.38-16-13.17,0-19.75,7.62-19.75,14.87,0,6.3,3.95,12.04,16.55,13.36,11.01,1.13,15.05,2.45,15.05,6.78,0,3.11-2.54,6.78-11.76,6.78s-12.42-5.93-12.51-9.6h-8.84Z"/>
  <path class="cls-1" d="M66,8.25V0H0s0,8.25,0,8.25h28.88v.09L.04,28.87v8.2l28.84-20.48v49.41h8.25V16.59l28.88,20.48v-8.14l-28.88-20.59v-.09h28.88Z"/>
</svg>